<?xml version="1.0" encoding="utf-8"?>
<!-- Generator: Adobe Illustrator 23.0.4, SVG Export Plug-In . SVG Version: 6.00 Build 0)  -->
<svg version="1.1" id="Layer_1" xmlns="http://www.w3.org/2000/svg" xmlns:xlink="http://www.w3.org/1999/xlink" x="0px" y="0px"
	 viewBox="0 0 80.15 161.7" style="enable-background:new 0 0 80.15 161.7;" xml:space="preserve">
<style type="text/css">
	.st0{fill:#FFFFFF;}
</style>
<g id="qCMh5M_12_">
	<path class="st0" d="M69.77,0c0.39,0.13,0.78,0.28,1.18,0.38c5.4,1.31,9.2,6.12,9.2,11.76c0.01,40.07,0,80.13,0,120.2
		c0,5.63,0,11.27,0,16.9c0,7.24-5.19,12.45-12.43,12.46c-18.43,0.01-36.85,0.01-55.28,0C5.19,161.69,0,156.5,0,149.23
		C0,103.59,0,57.94,0.01,12.29c0-6,3.76-10.63,9.66-11.99c0.25-0.06,0.47-0.2,0.71-0.3C30.18,0,49.97,0,69.77,0z M75.19,80.87
		c0-8.95,0-17.9,0-26.85c0-13.95,0.01-27.9,0-41.85c-0.01-4.23-2.94-7.13-7.15-7.16C65.87,5,63.71,5.05,61.56,5
		c-1.29-0.03-1.92,0.41-1.97,1.8c-0.1,2.48-1.6,3.88-4.04,3.89c-10.21,0.02-20.42,0.01-30.64,0c-2.44,0-3.94-1.42-4.03-3.89
		c-0.05-1.39-0.69-1.83-1.98-1.81c-2.21,0.05-4.42,0-6.63,0.02C7.83,5.04,4.97,7.9,4.97,12.35c-0.01,45.64,0,91.28,0,136.92
		c0,4.66,2.81,7.46,7.48,7.46c18.42,0.01,36.85,0.01,55.27-0.01c4.65,0,7.45-2.81,7.46-7.48C75.19,126.46,75.18,103.66,75.19,80.87z
		"/>
</g>
</svg>
